<?xml version="1.0" encoding="UTF-8"?>
<!-- Created with Inkscape (http://www.inkscape.org/) -->
<svg width="45mm" height="80mm" version="1.1" viewBox="0 0 45 80" xmlns="http://www.w3.org/2000/svg">
 <path d="m12.747 79.195c-3.8607-0.29551-7.1436-1.695-9.3879-4.0022-1.942-1.9964-2.8748-4.2666-2.8748-6.9964 0-1.3169 0.15066-2.2896 0.54462-3.516 2.0374-6.3427 8.9112-11.329 16.896-12.256 0.95457-0.11083 3.3331-0.11227 4.2822-0.0026 0.80282 0.09277 2.2192 0.35937 2.6329 0.49559 0.14204 0.04676 0.27598 0.06679 0.29764 0.04449 0.032451-0.033398-16.19-43.175-17.863-47.504-0.49212-1.2735-0.51125-1.3492-0.5168-2.0438-0.0054051-0.67423 0.011567-0.75424 0.25959-1.2251 0.31233-0.59294 0.65817-0.92775 1.2431-1.2034 0.53728-0.25321 1.3354-0.28164 1.9345-0.068911 0.48672 0.17281 1.1311 0.7434 1.3619 1.206 0.09046 0.18129 0.7685 1.9326 1.5068 3.8917l1.3423 3.5621 3.6086 1.7942c5.0029 2.4874 10.244 5.0691 12.601 6.2073 2.2608 1.0916 3.0089 1.5091 4.3032 2.4016 2.0542 1.4164 4.5306 3.7379 5.9693 5.5958 2.0125 2.599 3.2967 5.2786 3.702 7.7249 0.21737 1.312 0.11658 3.3445-0.2146 4.3276l-0.10462 0.31058-0.53607-0.77851c-1.6159-2.3467-4.2789-5.1085-6.8951-7.1508-4.0969-3.1983-9.6931-5.8706-14.309-6.8327-1.1107-0.23153-3.0085-0.47467-3.0855-0.39532-0.02108 0.0217 0.52438 1.5339 1.2121 3.3605 3.0192 8.0187 9.5686 25.382 11.411 30.251 1.3187 3.4858 1.5248 4.0909 1.5832 4.6487 0.03692 0.35266 0.10763 0.9658 0.15713 1.3625 0.34829 2.7916-0.76706 6.1863-2.9625 9.0168-0.63649 0.82059-2.0608 2.2694-2.9166 2.9668-3.0737 2.5048-7.2151 4.2305-11.328 4.7204-0.99228 0.11819-2.8874 0.16095-3.854 0.08696z" stroke="#d4ff00ff" stroke-linejoin="round" stroke-width=".98275" style="paint-order:markers fill stroke"/>
</svg>
